<svg width="630" height="605" viewBox="0 0 630 605" fill="none" xmlns="http://www.w3.org/2000/svg">
<path d="M99.7562 499.846C100.022 499.22 102.519 496.779 110.384 492.02C118.248 487.262 124.642 483.777 126.856 482.629C128.628 481.481 133.073 478.873 136.687 477.62C140.3 476.368 146.517 474.803 149.174 474.177L156.879 472.299C156.879 472.09 158.898 471.485 166.975 470.733C183.341 469.982 193.101 469.377 195.935 469.168H209.751C210.194 469.064 212.036 468.98 215.862 469.481C215.684 469.481 216.924 469.669 223.301 470.42C229.677 471.172 234.814 471.986 236.585 472.299L243.759 473.551L255.715 476.368L263.154 477.933L275.641 480.751L290.785 484.82L303.804 488.264L318.948 493.273L329.841 496.403L343.923 500.786L358.004 503.916L367.835 506.733L378.728 509.551C379.436 509.759 382.288 510.427 388.027 511.429C393.766 512.431 400.16 513.933 402.64 514.559L412.47 515.812L422.3 516.125L432.662 516.751L441.43 517.69H455.511C457.105 517.69 460.772 517.627 462.685 517.377C464.598 517.126 471.453 516.438 474.641 516.125L485.268 515.185L497.224 512.994L507.852 510.803L519.011 507.986L530.435 504.542L538.406 501.412L545.314 498.594L551.956 495.464L559.661 492.02L567.897 487.638L573.211 484.507C572.945 484.716 573.37 484.507 577.196 482.003L586.761 475.742L591.012 472.299L595.263 469.168L597.92 466.977L600.311 464.786C603.924 461.53 606.067 459.673 606.687 459.151C606.891 459.071 607.25 458.893 607.407 458.702C607.451 458.501 607.484 458.413 607.484 458.525C607.484 458.583 607.455 458.643 607.407 458.702C607.329 459.065 607.219 459.799 607.219 460.403C606.794 461.906 605.625 463.951 605.093 464.786C605.093 464.89 604.774 465.6 603.499 467.603L600.311 472.612L598.185 475.429L596.326 477.933C596.326 477.829 595.794 478.309 593.669 481.064C589.418 486.323 587.292 488.89 586.761 489.516L582.244 493.899L580.119 496.09L576.93 499.22L574.539 501.099C574.273 501.307 573.158 502.226 570.82 504.229C568.482 506.233 565.949 508.194 564.974 508.925L563.38 510.177L560.723 512.368L557.801 514.56L551.424 518.942L543.188 524.264L532.826 529.586L523.527 533.968L516.354 537.099L507.055 540.542L503.601 541.794L498.021 543.672L491.91 544.925L484.206 547.116L475.438 548.994L465.342 550.246L453.386 551.498L441.164 552.438H414.861L390.949 550.559L367.569 546.803L352.159 543.359L330.373 537.412L305.929 529.586L278.564 520.194L251.729 511.116L238.445 507.046L223.832 502.664L217.721 500.786L209.751 498.907L201.514 497.968L189.824 496.403L179.462 494.525L168.835 493.899H163.787L148.643 494.525L132.17 495.777L124.465 497.029L114.635 498.281L107.727 499.846L99.7562 502.977L97.6307 503.916L99.7562 499.846Z" fill="white"/>
<path d="M131.259 511.107C130.457 511.271 129.358 511.502 128.026 511.791C118.92 513.763 115.236 525.361 123.042 530.456L138.681 542.827L158.562 555.833L177.117 566.3L192.756 573.913L205.744 579.623L221.119 585.332L234.902 590.407L251.072 594.531L266.181 597.703L279.965 600.875L294.809 603.095L303.821 604.047L314.424 604.681H365.848C368.499 604.681 375.073 604.555 380.162 604.047C385.252 603.539 391.825 602.778 394.476 602.461L409.585 599.923L420.188 598.02L435.297 594.214L450.141 589.773L459.419 586.918L468.697 583.429L481.155 578.988C484.513 577.614 493.03 574.04 500.24 570.741C506.375 567.934 511.793 564.316 514.633 562.192C515.474 561.563 516.351 560.992 517.256 560.461C520.639 558.477 528.154 553.509 539.736 544.413C542.493 541.622 546.893 537.329 548.748 535.532C549.985 534.369 553.255 531.027 556.436 526.967C556.887 526.319 557.258 525.763 557.55 525.313C557.788 524.946 557.413 524.533 557.019 524.721C556.984 524.738 556.951 524.76 556.921 524.785L555.11 526.333C552.99 528.025 546.363 532.931 536.82 539.021C535.235 540.175 533.943 541.049 532.906 541.701C530.718 543.078 528.221 544.145 525.985 545.442L520.651 548.537L505.807 554.564L489.372 559.005C486.015 559.85 477.603 561.859 470.817 563.128C464.031 564.397 460.921 564.714 460.214 564.714L448.286 566.3L435.297 567.252H411.441L400.043 566.3L387.319 564.714C382.813 564.185 372.369 562.811 366.644 561.542C360.918 560.273 355.599 559.11 353.655 558.687L335.365 554.246L316.81 548.22L306.207 544.73L290.568 539.338C287.033 537.858 277.685 534.073 268.567 530.774C259.448 527.475 258.052 526.862 258.494 526.967C252.662 525.064 239.409 520.814 233.047 519.037L232.436 518.867C224.859 516.751 220.376 515.499 212.371 513.645C204.154 511.742 200.178 511.424 196.732 510.79C193.286 510.156 188.78 509.838 186.924 509.838C185.44 509.838 178 509.415 174.466 509.204H155.116L140.802 509.838L131.259 511.107Z" fill="white"/>
<path d="M388.583 192.997C389.054 193.282 390.098 193.598 392.171 193.775C392.573 193.809 392.983 193.789 393.383 193.728C400.739 192.597 400.659 192.507 406.016 190.562C406.407 190.42 406.824 190.319 407.237 190.264C429.302 187.323 436.932 187.617 437.986 188.139L440.97 189.688C441.805 190.122 442.715 190.481 443.554 190.909C444.219 191.248 445.172 191.772 446.496 192.558C447.776 193.318 449.56 193.794 451.376 194.081C454.394 194.559 460.184 193.86 463.239 193.826C463.546 193.823 464.471 193.854 464.772 193.919C468.248 194.667 471.073 195.324 473.351 195.891C476.478 196.669 476.301 199.177 473.193 200.031C473.029 200.076 472.739 200.171 472.583 200.241C464.642 203.764 465.517 202.775 461.357 205.77C461.025 206.009 460.668 206.212 460.301 206.391C457.976 207.524 453.703 210.137 451.549 213.392L446.496 219.705C445.875 220.337 444.262 222.546 442.773 226.335C439.503 232.804 437.484 239.768 436.276 243.749C435.853 245.144 435.695 246.716 435.418 248.147C435.139 249.592 434.56 251.81 433.465 255.06C431.338 260.616 429.92 265.162 429.476 266.74L424.781 277.594C424.544 278.141 424.391 278.722 424.215 279.293C423.741 280.832 422.398 284.079 419.371 289.468C415.542 296.287 407.67 306.409 404.213 310.618L394.374 319.773L381.609 330.19L369.11 338.081L358.428 343.717C357.584 344.162 356.676 344.567 355.874 345.083C354.639 345.876 352.399 347.464 348.634 350.392C347.747 350.918 345.336 352.602 342.783 355.127C341.631 356.18 338.635 359.042 335.869 362.072L332.68 365.587C332.326 365.978 332.026 366.422 331.655 366.797C331.036 367.425 329.835 368.342 327.801 369.321C327.335 369.545 326.834 369.689 326.324 369.768C322.086 370.424 319.315 370.804 317.611 371.011C316.184 371.184 315.674 370.908 316.714 369.913C317.008 369.632 317.357 369.299 317.768 368.908C318.132 368.561 318.454 368.167 318.716 367.736C321.971 362.391 323.337 358.979 323.793 357.035C324.08 355.811 324.457 354.198 323.586 353.292C323.369 353.066 323.045 352.918 322.573 352.918C321.377 352.918 319.644 353.867 318.503 354.623C318.018 354.944 317.508 355.228 316.964 355.433C315.508 355.98 313.033 356.939 310.606 357.968L307.13 359.344C306.789 359.479 306.461 359.646 306.15 359.842L302.628 362.072L297.575 366.176C297.132 366.597 294.916 368.638 289.597 373.436C284.279 378.234 276.39 384.695 273.11 387.326L261.941 394.586L251.835 401.215L238.805 407.844C236.766 409.107 231.678 412.137 227.636 414.157C223.594 416.178 218.151 418.787 215.935 419.84L203.17 423.943L190.14 428.678L175.514 434.676L159.292 442.883L149.452 447.303L136.156 454.563L125.785 461.508L117.009 468.453L107.17 476.66L95.2028 488.024L85.9123 499.359C85.7239 499.588 85.5545 499.83 85.4023 500.086C83.8437 502.702 81.0643 507.245 79.8838 508.753C79.652 509.049 79.2416 509.243 79.1485 508.878C78.9279 508.015 79.1334 505.265 80.8426 498.441C81.6272 495.308 82.6928 492.348 83.843 489.694C84.6185 487.905 96.0001 471.14 97.3302 469.715C105.384 461.822 112.222 455.435 117.671 450.514C120.401 448.048 142.899 430.662 145.995 428.678C159.398 420.092 178.173 408.896 185.885 404.372L206.361 394.586C208.223 393.744 214.233 390.987 223.381 386.694C232.179 382.566 242.501 376.16 247.063 373.148C247.41 372.919 247.775 372.731 248.149 372.552C249.656 371.833 253.102 369.911 258.55 366.18C258.859 365.969 259.188 365.786 259.528 365.629C261.405 364.764 264.866 362.962 266.993 361.125C269.333 358.852 266.905 359.336 265.398 359.862L256.622 363.335L247.58 365.86L236.146 368.701L222.849 371.542L206.095 375.015L192.001 378.487L179.502 381.959C178.882 382.064 176.258 382.717 170.727 384.485C165.195 386.252 156.012 390.482 152.112 392.376L142.538 396.164L132.433 400.899L119.934 407.528L108.499 415.104L97.8621 422.365L85.3634 433.729L77.6514 440.989L71.0032 448.881L67.2802 452.985L62.4935 458.982L56.643 468.137C56.0139 469.164 54.6174 471.797 53.5675 474.847C53.4716 475.152 53.3307 475.587 53.1859 476.029C53.306 475.63 53.4339 475.235 53.5675 474.847C53.8824 473.846 53.7107 474.253 51.5903 480.448C48.9201 488.25 46.3655 497.858 45.3148 502.11C45.243 502.4 45.195 502.694 45.169 502.992L44.4102 511.699V521.008C44.4102 521.325 44.4359 521.642 44.487 521.956L46.0058 531.271L47.6014 539.162C47.6845 539.409 47.7948 539.799 47.8667 540.195C48.0068 540.968 47.905 541.787 47.714 542.549C47.5143 543.346 47.0895 544.205 46.2718 544.529C44.9953 545.034 42.726 545.371 41.7509 545.476C41.3077 545.581 40.2086 545.728 39.3576 545.476C38.7588 545.298 38.3005 544.693 38.0196 544.167C37.8192 543.792 37.6513 543.398 37.4319 543.033L36.4324 541.372C35.9311 540.579 34.7683 538.364 33.9238 535.575C33.8201 535.233 33.7561 534.875 33.7237 534.518C32.4929 520.975 32.3559 513.672 32.4434 511.699L33.2412 506.333C33.3298 505.701 33.8794 503.113 35.3686 497.81C36.686 493.119 38.5165 487.752 39.5351 484.901C39.7676 484.25 39.9695 483.577 40.2251 482.935C40.6593 481.844 41.5796 479.739 43.3465 476.029C45.5887 471.32 48.5649 465.878 50.4615 462.529C51.1811 461.258 51.7642 459.765 52.4924 458.499C53.4386 456.854 55.2529 454.117 58.5045 449.828C64.2486 442.252 68.3439 437.833 69.6736 436.57C71.1805 434.781 75.0985 430.32 78.7152 426.784C83.236 422.365 84.0338 420.787 92.0117 415.104C91.5684 415.42 92.118 414.978 97.8621 410.685C105.507 405.67 111.693 401.201 114.217 399.306C114.484 399.106 114.765 398.928 115.061 398.774L123.125 394.586L132.433 388.904L143.07 383.853L154.239 379.118L165.674 374.068L176.045 370.28L185.619 366.807C186.239 366.491 188.65 365.481 193.331 363.966C199.181 362.072 199.979 361.756 198.649 361.441C197.724 361.221 195.254 361.304 193.694 361.399C193.3 361.423 192.908 361.487 192.518 361.55L192.446 361.562C191.448 361.725 189.235 362.009 185.087 362.388C179.556 362.893 174.095 363.019 172.056 363.019H150.25C147.946 363.124 142.698 363.398 140.145 363.65C137.592 363.903 131.103 364.177 128.178 364.282L121.796 364.597L109.563 366.176L98.9258 368.07L92.7769 368.946C92.4446 368.993 92.117 369.069 91.7977 369.172L86.4271 370.911L75.2581 373.436L69.1417 375.646L60.8979 378.803L52.1222 382.591L46.0058 385.747L39.0917 390.167L31.1138 395.849L26.0611 400.584L21.2744 406.266L17.2854 411.948L14.6261 416.999C14.2716 417.63 13.4029 419.398 12.7646 421.418C12.1264 423.438 11.9668 424.364 11.9668 424.575C11.9668 424.364 11.8073 424.764 11.169 428.047C10.5664 431.147 10.0744 435.053 9.87217 436.897C9.84989 437.1 9.80523 437.299 9.7376 437.491L9.07346 439.383C8.79813 440.168 8.0484 441.68 7.44603 442.252C6.38231 443.262 4.34352 443.515 3.45709 443.515C3.2798 443.515 2.71248 443.325 1.86151 442.568C0.889712 441.703 0.583779 441.628 0.132614 439.696C0.0398343 439.298 -4.18481e-09 438.889 0 438.481L7.87488e-08 430.802C8.24788e-08 430.438 0.0336795 430.077 0.100605 429.719L0.976049 425.043C1.0344 424.731 1.11782 424.425 1.22549 424.126L3.3009 418.378C3.40487 418.09 3.53112 417.811 3.67851 417.543L7.23836 411.063C7.37662 410.811 7.5331 410.57 7.70653 410.342L12.2328 404.372L16.7536 398.69L22.3381 393.323L26.8589 389.535L30.5819 386.694L35.3686 383.222L41.485 379.118L48.931 374.699L51.8563 373.436L56.1112 371.542L60.8979 369.332L65.9505 367.123L78.7152 362.703L83.5019 361.441L88.0227 360.178L95.7347 357.968L102.117 356.39L108.765 355.127L114.35 354.18L115.624 353.905C116.208 353.779 124.127 352.357 124.721 352.286C128.976 351.781 132.522 351.655 133.763 351.655L141.209 351.024L148.655 350.708L156.898 350.077L162.483 349.761L169.929 349.445H181.63L189.076 349.13L194.66 348.498L209.287 347.551L218.86 346.289L227.104 345.342L233.752 344.079L240.134 342.816L247.58 340.922L256.622 338.713L266.727 335.24L276.567 331.137L284.811 326.402L297.043 317.247L307.149 308.408L310.359 304.734C310.985 304.017 317.763 295.925 318.318 295.15C318.886 294.357 319.357 293.667 319.744 293.069C320.407 292.045 319.046 291.536 318.224 292.436C318.182 292.482 318.026 292.644 317.977 292.682C315.9 294.266 314.001 295.664 312.346 296.854C311.801 297.245 300.068 303.131 299.437 303.358C292.416 305.883 285.874 306.935 283.481 307.146L275.237 307.777L260.742 307.184C260.126 307.159 259.519 307.037 258.942 306.823L255.558 305.567C254.69 305.155 253.511 304.963 254.449 304.754C254.916 304.65 255.614 304.504 256.622 304.305C260.137 303.609 263.921 301.442 265.753 300.196C266.051 299.993 266.359 299.807 266.676 299.635C267.497 299.188 269.211 298.195 272.046 296.413C277.591 292.167 281.394 289.11 283.202 287.619L283.246 287.583C283.776 287.146 284.398 286.634 284.359 285.954C284.344 285.697 284.124 285.614 283.481 285.996C279.695 288.361 274.837 291.095 272.488 292.384C272.194 292.545 271.916 292.732 271.625 292.899C270.716 293.421 268.652 294.314 265.132 295.15C255.817 297.503 249.626 298.76 247.246 299.176C246.936 299.23 246.625 299.254 246.311 299.254H228.376C228.06 299.254 227.745 299.228 227.433 299.178L215.111 297.17C214.599 297.087 214.1 296.935 213.627 296.721L201.841 291.362L196.273 288.884C195.733 288.643 195.232 288.323 194.788 287.933L189.342 283.155L187.261 281.391C186.201 280.492 185.87 279.998 187.26 279.998H189.076C194.129 279.998 192.267 280.945 199.447 279.367C204.854 278.178 211.314 277.083 214.346 276.607C214.696 276.552 215.04 276.467 215.375 276.351L221.253 274.316L226.404 272.455C227.043 272.225 227.719 272.076 228.364 271.865C229.244 271.577 230.716 270.991 232.954 269.897C235.89 268.462 238.908 266.93 240.698 266.01C241.38 265.66 242.524 265.174 242.014 264.6C241.717 264.266 240.992 264.625 240.583 264.805C236.386 266.654 232.893 267.702 231.625 268.003L224.976 268.634L217.796 269.581H199.979L189.874 268.634L181.896 267.371L170.993 264.215L162.483 260.427L153.175 255.692L145.198 250.325L139.04 245.94C138.714 245.708 138.412 245.442 138.139 245.148L132.699 239.277L124.189 230.438C123.037 229.176 120.466 226.082 119.402 223.809C117.541 219.705 116.211 218.127 117.807 219.39C119.855 220.757 121.107 221.507 121.818 221.888C122.291 222.142 122.813 222.296 123.329 222.449L127.912 223.809C129.16 224.046 138.963 225.52 140.992 225.825L141.226 225.86C141.559 225.91 141.908 225.963 142.272 226.019C148.867 227.029 156.898 227.281 160.09 227.281H186.949L195.99 226.65L202.372 225.387C202.993 225.177 203.702 224.693 201.575 224.44C199.447 224.188 194.838 224.335 192.799 224.44H185.329C184.991 224.44 184.654 224.411 184.321 224.353L175.779 222.862L165.674 221.599L157.164 219.705L150.72 218.005C150.231 217.877 149.73 217.803 149.232 217.717C148.146 217.53 145.914 217.031 142.006 215.917C138.751 214.99 132.498 212.35 129.393 211.002L124.721 208.973L117.807 205.185L109.563 200.134L102.649 195.083L96.7549 191.002C96.4301 190.777 96.1288 190.52 95.8556 190.235L89.6183 183.719L81.3745 173.933L77.1512 167.741C76.9532 167.45 76.7817 167.143 76.6385 166.822L74.4603 161.938L71.5351 156.887C70.56 154.572 68.3439 149.122 67.2802 145.839C65.4187 136.053 64.089 132.897 65.4187 135.106C66.7483 137.316 67.0143 138.579 72.3329 142.051C80.6299 147.607 87.1363 151.731 89.3524 153.099L91.6119 154.709C91.8779 154.898 92.1593 155.065 92.4531 155.208L97.8621 157.834L104.244 161.307L109.563 163.832L117.807 166.989L128.178 170.777L137.486 173.933L144.4 175.827L152.91 178.353C153.619 178.563 155.622 179.047 157.962 179.3C161.323 179.522 163.504 179.899 164.045 179.776C164.507 179.671 163.589 179.212 163.148 179.037C158.337 177.127 154.351 175.484 152.91 174.881L145.589 172.184C145.328 172.088 145.075 171.973 144.831 171.842L139.347 168.883L130.04 164.463L123.125 161.307L111.159 154.046L100.521 146.47L91.2139 138.579L84.0338 131.003L76.5877 122.164L71.0032 113.641L67.2802 107.327L64.6209 101.645L60.8979 91.2282L59.0364 85.5462L57.1749 79.2328L55.9047 73.9558C55.6907 73.0667 55.4143 72.1556 55.2915 71.2494C55.2136 70.6742 55.1292 69.8832 55.0474 68.8158C54.8347 66.0379 54.9588 62.818 55.0474 61.5554V55.8733C55.0474 55.3012 54.9383 54.6643 54.8683 54.2562L54.8583 54.1979C54.7585 53.6138 55.2418 54.5257 55.6233 54.9786L60.1001 60.2927L63.2913 63.4493C63.5572 63.765 64.8336 65.0908 67.8121 67.8687C70.7905 70.6466 74.9035 74.7082 76.5877 76.3918L81.9063 82.0738L87.2249 86.4932L90.1501 89.0185L96.2665 94.3849L101.851 99.1199L111.425 107.012L125.253 117.429L140.677 128.161L161.951 142.367L183.491 155.309L207.159 168.883L222.317 177.09L240.666 185.929L267.525 198.24L273.67 201.45C274.005 201.624 274.356 201.766 274.717 201.874L279.091 203.172C279.358 203.251 279.619 203.349 279.872 203.465L287.736 207.079L296.246 210.867L307.149 214.339L316.988 218.443L327.625 222.231L337.199 225.072L347.57 227.597L356.878 229.807L364.758 231.561C365.176 231.654 365.603 231.701 366.032 231.701H373.099L377.62 231.07C377.823 231.07 378.488 230.996 379.735 230.738C380.62 230.554 381.441 230.138 382.134 229.556C385.801 226.478 388.244 224.264 389.055 223.493C390.133 222.533 389.211 220.968 387.768 220.968H382.939L377.572 220.437C376.9 220.371 376.244 220.189 375.634 219.899L374.887 219.544C374.233 219.233 373.641 218.804 373.143 218.279L369.11 214.023C368.478 213.189 367.544 211.812 367.821 211.656C368.128 211.481 368.479 211.876 368.81 211.998L372.567 213.392C373.022 213.572 374.137 213.905 375.38 213.999C375.808 214.031 376.236 213.977 376.653 213.881C379.749 213.165 382.108 212.425 382.939 212.129L385.29 211.114C385.672 210.95 386.508 210.807 386.204 210.524C386.034 210.366 385.495 210.162 384.268 209.92C382.313 209.533 380.233 208.751 378.889 208.17C378.219 207.88 377.633 207.433 377.141 206.894L374.823 204.354C374.561 204.067 374.328 203.754 374.128 203.421L373.099 201.712C372.503 200.722 371.991 199.751 371.609 198.978C371.169 198.09 371.05 197.574 371.871 198.128L372.036 198.24C377.62 201.712 377.886 202.344 380.279 202.659C385.598 202.659 386.662 203.291 388.257 202.659C390.761 201.564 392.51 200.736 393.604 200.189C394.165 199.909 394.142 199.14 393.576 198.871L391.424 198.02C390.737 197.748 389.989 197.532 389.443 197.035C389.249 196.858 389.031 196.633 388.789 196.346C387.971 195.375 387.088 193.938 386.706 193.267C386.676 193.215 386.654 193.16 386.637 193.103C386.454 192.45 387.171 191.913 387.753 192.259C388.049 192.434 388.289 192.819 388.583 192.997Z" fill="white"/>
<path d="M424.718 200.364C431.096 198.845 435.348 199.098 436.677 199.415C437.652 199.626 439.388 200.174 438.537 200.681C432.159 204.48 428.439 205.218 427.376 205.113L424.718 204.48L423.655 204.163L422.592 203.213L421.529 202.58C421.086 202.58 420.36 202.517 420.998 202.264C421.635 202.01 422.503 201.525 422.858 201.314L423.406 201.034L424.718 200.364Z" fill="white"/>
<path d="M446.776 242.784H457.14C456.432 243.101 458.363 243.227 471.757 241.201C497.482 235.123 515.607 228.75 521.453 226.323L544.84 217.459L566.366 207.012L591.082 193.4C594.093 191.817 602.403 187.069 611.545 180.737C626.959 169.657 629.616 165.226 629.35 167.125C629.085 169.024 630.413 166.175 626.959 178.838C615.903 203.657 607.47 216.404 604.635 219.675C605.432 219.675 604.316 221.574 593.473 229.172C592.41 229.594 588.371 231.514 580.717 235.82C563.709 242.911 550.421 247.216 545.903 248.482L528.895 251.331C527.034 251.648 524.855 252.408 531.021 252.914C531.375 253.02 535.113 253.041 547.232 252.281C559.35 251.521 573.896 249.432 579.654 248.482C581.249 248.271 586.351 247.089 594.005 244.05C607.027 238.036 609.419 234.553 608.356 237.086C599.639 251.521 593.562 259.14 591.613 261.145C591.259 261.461 588.69 263.614 581.249 269.692C573.807 275.77 566.455 278.978 563.709 279.822L543.511 283.937L536.867 284.571C533.944 284.782 526.343 285.077 519.327 284.571C512.311 284.064 502.053 282.249 497.801 281.405L493.017 279.822C492.22 279.506 490.945 279.189 492.22 280.455C503.116 285.204 504.977 286.153 512.949 288.686C544.627 292.991 555.559 293.857 557.065 293.751C557.596 293.434 558.181 293.308 556.268 295.334C546.062 303.185 538.728 308.102 536.336 309.579L523.314 315.594C521.896 316.016 517.52 317.114 511.355 318.127C498.598 318.633 490.271 318.338 487.702 318.127L472.554 314.961L458.469 309.579L453.951 307.363C453.331 307.047 452.463 306.73 453.951 307.996C462.19 314.011 463.253 314.961 471.757 319.076C488.765 325.154 493.726 327.096 494.081 327.307C494.701 327.623 494.825 328.636 490.36 330.156C487.88 331.528 482.068 334.461 478.667 335.221C474.415 336.171 476.275 336.487 464.05 337.754C454.27 338.767 444.207 338.176 440.398 337.754C437.386 337.437 430.352 336.044 426.313 333.005C415.102 326.089 411.023 324.245 410.215 324.141H410.161C409.865 324.241 410.848 326.312 414.088 329.206C426.844 338.83 430.919 341.447 431.362 341.552C432.159 341.869 433.435 342.502 432.159 342.502C426.632 343.515 418.517 344.401 415.151 344.718H406.912C405.406 344.824 401.172 344.845 396.282 344.085C391.392 343.325 385.741 341.658 383.526 340.919C381.754 340.603 378.902 339.906 381.666 339.653C389.319 336.107 394.599 332.266 396.282 330.789L402.926 324.774L413.291 313.378L421.795 301.032L426.313 293.118L432.691 280.455L437.474 268.426C438.98 264.416 441.62 255.573 442.258 252.281C442.896 244.683 445.713 242.784 446.776 242.784Z" fill="white"/>
<path d="M226.242 435.617C212.756 438.561 193.708 447.775 187.6 451.389C186.24 452.193 184.874 454.074 186.209 454.918C190.003 457.318 207.449 457.991 252.252 463.652C259.471 465.181 278.173 469.598 286.224 471.935C299.405 476.501 330.44 486.716 349.124 491.049C367.809 495.381 390.351 499.225 399.286 500.606L437.77 503.155L486.073 501.243C490.85 501.031 503.165 499.714 520.576 493.597C537.986 487.481 542.162 486.376 542.87 485.952L577.903 467.475C584.096 463.758 598.87 453.203 608.424 440.715C617.792 428.471 619.591 424.108 619.825 423.541L619.837 423.512C620.626 420.67 623.175 413.974 624.47 406.954C624.769 405.331 623.977 403.502 622.52 404.27C620.528 405.321 618.031 408.325 616.413 410.601C616.036 411.13 615.595 411.605 615.074 411.992C604.872 419.566 587.652 429.424 574.718 436.255C564.102 441.861 539.154 449.21 528.007 452.183L500.299 456.262C500.016 456.304 499.731 456.325 499.445 456.325H469.883L439.097 454.095L399.286 447.405C384.6 443.263 352.256 435.617 333.996 431.795C315.737 427.972 298.078 427.441 291.532 427.653C283.835 427.228 260.745 429.246 226.242 435.617Z" fill="white"/>
<path d="M278.004 173.377L290.53 156.034L303.856 140.582L320.113 126.707L339.835 114.724L362.489 105.263L379.812 100.849L403.266 99.2718H417.391L446.441 104.317L468.561 114.408L485.885 125.13C487.839 126.181 493.4 129.86 500.01 136.167C506.619 142.474 513.78 150.778 516.534 154.141L530.772 173.797C530.709 173.675 530.786 173.789 530.925 174.008L530.772 173.797C530.952 174.142 532.265 176.38 536.522 183.468C542.279 193.055 545.85 200.917 546.916 203.65L532.524 211.849C532.347 211.954 530.286 212.984 523.463 216.264C514.935 220.363 505.607 223.832 501.076 225.724C500.276 226.565 498.144 227.995 496.012 226.986C491.748 219.165 487.306 212.165 485.618 209.642C485.885 209.747 486.844 209.137 488.55 205.858C490.593 204.807 494.147 201.632 492.014 197.343C489.349 191.983 489.616 190.406 485.085 186.622C477.41 182.333 470.693 180.84 468.295 180.63C467.229 180.42 464.19 180.126 460.566 180.63C454.809 181.639 450.527 180.42 449.106 179.684L436.047 170.855L428.051 168.017L414.992 165.809H399.534L388.074 167.071L375.282 171.801L368.352 175.9L359.291 182.838L353.161 188.829L345.432 198.289L340.635 205.858L337.703 211.534C337.614 211.849 337.33 212.417 336.904 212.165C333.919 210.651 328.731 208.801 326.51 208.065L317.715 204.596L305.455 200.812L293.462 196.713L283.601 191.983L271.875 187.252C271.519 187.252 270.809 187.063 270.809 186.306C270.809 185.55 272.408 182.417 273.207 180.946L278.004 173.377Z" fill="white"/>
<path d="M301.924 36.0651C296.601 28.7997 296.601 28.6943 296.601 28.7996L302.457 46.8055C303.699 51.0174 306.236 59.6307 306.449 60.3889C306.662 61.147 308.49 66.6015 309.377 69.2339L312.571 80.6061L316.564 90.7146C316.919 92.3994 319.119 97.4747 325.082 104.298C327.211 105.562 327.477 106.194 332.268 102.719C333.067 101.455 333.067 98.6121 332.535 91.9782C332.109 89.1983 330.938 86.1868 330.139 85.0286C327.743 79.3425 325.614 76.8153 319.758 66.075C313.902 55.3346 315.233 57.5459 301.924 36.0651Z" fill="white"/>
<path d="M375.788 9.03112C372.958 0.0156509 372.99 -0.0830442 372.958 0.0155026L373.117 19.3045C373.035 23.7634 372.865 32.8807 372.84 33.6789C372.815 34.4771 372.914 40.3426 372.966 43.1756L372.595 55.1481L373.343 66.2705C373.178 67.995 373.736 73.6608 377.293 82.5284C378.909 84.5974 378.972 85.2996 384.472 84.0418C385.591 83.1917 386.429 80.5309 387.889 74.1007C388.311 71.3218 388.105 68.0159 387.701 66.5995C387.141 60.2808 385.897 57.0293 383.595 44.5401C381.293 32.0509 381.884 34.6743 375.788 9.03112Z" fill="white"/>
<path d="M242.685 97.411C236.214 93.4966 236.185 93.4094 236.214 93.4965L246.049 106.077C248.242 109.07 252.724 115.191 253.109 115.734C253.495 116.277 256.52 120.066 257.984 121.893L263.769 130.037L269.887 136.823C270.644 138.076 273.881 141.406 280.773 144.704C282.916 144.913 283.312 145.33 286.42 140.579C286.752 139.222 285.981 136.873 283.731 131.6C282.617 129.47 280.81 127.441 279.821 126.798C276.253 123.039 273.767 121.787 265.903 115.21C258.039 108.633 259.764 109.938 242.685 97.411Z" fill="white"/>
<path d="M458.952 16.5986C459.065 6.97668 459.124 6.89812 459.065 6.97656L453.329 25.0205C451.893 29.1404 448.953 37.5634 448.686 38.2965C448.42 39.0297 446.722 44.5382 445.907 47.2008L441.909 58.1982L439.213 68.8857C438.533 70.4214 437.325 75.9422 437.935 85.7399C438.81 88.3651 438.654 89.0463 444.163 90.2464C445.465 89.9366 447.058 87.8186 450.38 82.4558C451.621 80.0482 452.438 76.8787 452.493 75.3844C453.898 69.2543 453.731 65.6879 455.395 53.0563C457.06 40.4248 456.81 43.1245 458.952 16.5986Z" fill="white"/>
<path d="M539.844 62.9884C543.162 54.2995 543.241 54.2601 543.163 54.2994L532.028 67.5974C529.373 70.5647 523.942 76.63 523.459 77.1521C522.977 77.6743 519.626 81.763 518.01 83.7421L510.778 91.5747L504.806 99.8317C503.688 100.859 500.767 105.225 498.033 114.466C497.933 117.328 497.567 117.862 502.065 121.942C503.326 122.367 505.451 121.305 510.198 118.23C512.107 116.713 513.893 114.274 514.442 112.945C517.741 108.132 518.785 104.798 524.49 94.2141C530.194 83.6298 529.069 85.9495 539.844 62.9884Z" fill="white"/>
</svg>
